1030  3  0  0
   0    0  0.5  33.2714
   1    0.99999000000000005  0.5  0
   2    0.99999000000000005  0.5  170
   3    0.99999000000000005  10.5  0
   4    0.99999000000000005  10.5  170
   5    16.336390000000002  0  30.926639999999999
   6    16.336390000000002  0  139.33385000000001
   7    16.336390000000002  0.5  30.926639999999999
   8    16.336390000000002  0.5  139.33385000000001
   9    16.42548  0.5  30.421399999999998
  10    16.59291  0.5  138.62906000000001
  11    16.699999999999999  0  31.445920000000001
  12    16.699999999999999  0.5  31.445920000000001
  13    16.899999999999999  0.5  35.796399999999998
  14    16.899999999999999  0.5  134.20359999999999
  15    16.899999999999999  10.5  35.796399999999998
  16    16.899999999999999  10.5  134.20359999999999
  17    16.944759999999999  0  30.057790000000001
  18    16.944759999999999  0.5  30.057790000000001
  19    17.074999999999999  0  139.95359999999999
  20    17.074999999999999  0.5  139.95359999999999
  21    17.449999999999999  0  31.445920000000001
  22    17.449999999999999  0  138.55408
  23    17.449999999999999  0.5  31.445920000000001
  24    17.449999999999999  0.5  138.55408
  25    17.557089999999999  0  139.77814000000001
  26    17.557089999999999  0.5  139.77814000000001
  27    17.649529999999999  0.5  30.314309999999999
  28    17.779769999999999  0  31.05292
  29    17.813600000000001  0.5  30.666160000000001
  30    17.824999999999999  0  139.20361
  31    17.824999999999999  0.5  139.20361
  32    18.099989999999998  0.5  0
  33    18.099989999999998  0.5  33.2714
  34    18.099989999999998  0.5  134.20359999999999
  35    18.099989999999998  0.5  141.67859999999999
  36    18.400829999999999  0.5  30.501200000000001
  37    18.477509999999999  0.5  139.78503000000001
  38    18.477509999999999  6.5  138.62216000000001
  39    18.477509999999999  6.5  139.78503000000001
  40    18.477519999999998  6.5  30.214970000000001
  41    18.60275  0.5  31.6464
  42    19.493559999999999  0.5  29.198920000000001
  43    19.493559999999999  0.5  137.60611
  44    19.493559999999999  6.5  29.198920000000001
  45    19.493559999999999  6.5  32.393880000000003
  46    19.493559999999999  6.5  137.60611
  47    19.779789999999998  6.5  140.87778
  48    20.07499  0.5  32.496400000000001
  49    20.07499  0.5  140.90359000000001
  50    20.65643  0.5  29.198920000000001
  51    20.65643  6.5  29.198920000000001
  52    20.65643  6.5  137.60611
  53    20.924990000000001  6.5  140.67583999999999
  54    21.377269999999999  0.5  138.11086
  55    21.547239999999999  0.5  31.6464
  56    21.547239999999999  0.5  140.05359999999999
  57    21.547239999999999  6.5  31.6464
  58    21.749169999999999  0.5  30.501200000000001
  59    21.749169999999999  0.5  138.9084
  60    21.749169999999999  6.5  30.501200000000001
  61    21.749169999999999  6.5  138.9084
  62    22.462489999999999  0.5  0
  63    22.462489999999999  0.5  33.2714
  64    22.462489999999999  0.5  134.20359999999999
  65    22.462489999999999  0.5  141.67859999999999
  66    22.995989999999999  0.5  21.5
  67    22.995989999999999  0.5  25.796399999999998
  68    22.995989999999999  0.5  144.20359999999999
  69    22.995989999999999  0.5  148.5
  70    22.995989999999999  10.5  21.5
  71    22.995989999999999  10.5  25.796399999999998
  72    22.995989999999999  10.5  144.20359999999999
  73    22.995989999999999  10.5  148.5
  74    23.161390000000001  0  135.07336000000001
  75    23.161390000000001  0  143.07336000000001
  76    23.161390000000001  0.5  135.07336000000001
  77    23.161390000000001  0.5  143.07336000000001
  78    23.195219999999999  0  27.05292
  79    23.195219999999999  0.5  26.53988
  80    23.195219999999999  0.5  27.05292
  81    23.25047  0  26.421399999999998
  82    23.25047  0  35.171399999999998
  83    23.25047  0.5  35.171399999999998
  84    23.524989999999999  0  34.146880000000003
  85    23.524989999999999  0  134.55409
  86    23.524989999999999  0  135.85311999999999
  87    23.524989999999999  0  142.55408
  88    23.524989999999999  0  143.85312999999999
  89    23.524989999999999  0.5  34.146880000000003
  90    23.524989999999999  0.5  134.55409
  91    23.524989999999999  0.5  135.85311999999999
  92    23.524989999999999  0.5  142.55408
  93    23.524989999999999  0.5  143.85312999999999
  94    23.769760000000002  0  26.057790000000001
  95    23.769760000000002  0  27.53501
  96    23.769760000000002  0.5  26.057790000000001
  97    23.769760000000002  0.5  27.53501
  98    24.03023  0  35.53501
  99    24.03023  0  134.465
 100    24.03023  0.5  35.53501
 101    24.073640000000001  0.5  25.811589999999999
 102    24.073640000000001  0.5  134.21879999999999
 103    24.073640000000001  0.5  144.1884
 104    24.274999999999999  0  26.146879999999999
 105    24.274999999999999  0  34.146880000000003
 106    24.274999999999999  0  135.85311999999999
 107    24.274999999999999  0  143.85312999999999
 108    24.274999999999999  0.5  26.146879999999999
 109    24.274999999999999  0.5  34.146880000000003
 110    24.274999999999999  0.5  134.55409
 111    24.274999999999999  0.5  135.85311999999999
 112    24.274999999999999  0.5  143.85312999999999
 113    24.474519999999998  0  142.72149999999999
 114    24.474519999999998  0.5  142.72149999999999
 115    24.549510000000001  0  134.82859999999999
 116    24.604759999999999  0  143.46012999999999
 117    24.604759999999999  0.5  143.46012999999999
 118    24.6386  0  26.926639999999999
 119    24.6386  0  34.666159999999998
 120    24.6386  0.5  26.926639999999999
 121    24.6386  0.5  34.666159999999998
 122    24.6386  0.5  135.07336000000001
 123    24.666039999999999  0.5  134.56081
 124    24.666039999999999  0.5  143.84639000000001
 125    24.766020000000001  0.5  35.296399999999998
 126    24.884810000000002  0.5  26.62275
 127    24.884810000000002  0.5  135.02995000000001
 128    24.884810000000002  0.5  143.37724
 129    24.884810000000002  10.5  26.62275
 130    24.884810000000002  10.5  34.970050000000001
 131    24.899999999999999  0.5  32.0214
 132    24.899999999999999  0.5  140.42859999999999
 133    58.015189999999997  0.5  149.82634999999999
 134    58.015189999999997  0.5  154.17365000000001
 135    58.015189999999997  5.5  149.82634999999999
 136    58.133969999999998  5.5  154.5
 137    58.657980000000002  0.5  154.93969999999999
 138    58.826349999999998  0.5  149.01517999999999
 139    58.826349999999998  5.5  149.01517999999999
 140    80.061059999999998  6.7740400000000003  170
 141    80.061059999999998  6.7740400000000003  171.99997999999999
 142    80.061059999999998  7.2625000000000002  170
 143    80.061059999999998  7.2625000000000002  171.99997999999999
 144    81.099029999999999  2.5  170
 145    81.099029999999999  2.5  171.99997999999999
 146    81.099029999999999  6.7740400000000003  170
 147    81.099029999999999  6.7740400000000003  171.99997999999999
 148    81.526439999999994  2.5  170
 149    81.526439999999994  2.5  171.99997999999999
 150    81.526439999999994  6.7740400000000003  170
 151    81.526439999999994  6.7740400000000003  171.99997999999999
 152    82.173649999999995  5.5  149.01517999999999
 153    82.342010000000002  0.5  149.06030000000001
 154    82.342010000000002  5.5  149.06030000000001
 155    82.564419999999998  6.7740400000000003  170
 156    82.564419999999998  6.7740400000000003  171.99997999999999
 157    82.564419999999998  7.2625000000000002  170
 158    82.564419999999998  7.2625000000000002  171.99997999999999
 159    82.930760000000006  2.5  170
 160    82.930760000000006  2.5  171.99997999999999
 161    82.939689999999999  0.5  154.34202999999999
 162    82.939689999999999  5.5  154.34202999999999
 163    82.984800000000007  0.5  149.82634999999999
 164    83.397289999999998  2.5  170
 165    83.397289999999998  2.5  171.99997999999999
 166    84.121390000000005  4.02644  170
 167    84.121390000000005  4.02644  171.99997999999999
 168    84.353229999999996  4.5148999999999999  170
 169    84.353229999999996  4.5148999999999999  171.99997999999999
 170    85.099999999999994  0.5  33.2714
 171    85.099999999999994  0.5  141.67859999999999
 172    85.115189999999998  10.5  34.970050000000001
 173    85.115189999999998  10.5  135.02995000000001
 174    85.160300000000007  0.5  26.45438
 175    85.189899999999994  7.2625000000000002  170
 176    85.189899999999994  7.2625000000000002  171.99997999999999
 177    85.21566  6.3342299999999998  170
 178    85.21566  6.3342299999999998  171.99997999999999
 179    85.233969999999999  0.5  134.70361
 180    85.250960000000006  7.2625000000000002  170
 181    85.250960000000006  7.2625000000000002  171.99997999999999
 182    85.333950000000002  0.5  35.439190000000004
 183    85.333950000000002  0.5  143.84639000000001
 184    85.333950000000002  10.5  26.15361
 185    85.333950000000002  10.5  143.84639000000001
 186    85.36139  0  26.926639999999999
 187    85.36139  0  34.666159999999998
 188    85.36139  0  135.07336000000001
 189    85.36139  0.5  26.926639999999999
 190    85.36139  0.5  34.666159999999998
 191    85.36139  0.5  135.07336000000001
 192    85.36139  0.5  143.07336000000001
 193    85.395229999999998  0  143.46012999999999
 194    85.450479999999999  0.5  35.171399999999998
 195    85.525469999999999  0  142.72149999999999
 196    85.617900000000006  0  134.62907000000001
 197    85.617900000000006  0.5  34.221870000000003
 198    85.617900000000006  0.5  134.62907000000001
 199    85.724990000000005  0  27.445920000000001
 200    85.724990000000005  0  35.445920000000001
 201    85.724990000000005  0  143.85312999999999
 202    85.724990000000005  0.5  27.445920000000001
 203    85.724990000000005  0.5  142.55408
 204    85.724990000000005  0.5  143.85312999999999
 205    85.84348  0  135.90836999999999
 206    85.84348  0.5  135.90836999999999
 207    85.926349999999999  0.5  25.811589999999999
 208    85.926349999999999  0.5  35.781210000000002
 209    85.926349999999999  0.5  134.21879999999999
 210    85.969759999999994  0  26.057790000000001
 211    85.969759999999994  0.5  26.057790000000001
 212    85.969759999999994  0.5  35.53501
 213    86.055210000000002  4.5148999999999999  170
 214    86.055210000000002  4.5148999999999999  171.99997999999999
 215    86.099999999999994  0  34.046399999999998
 216    86.099999999999994  0.5  34.046399999999998
 217    86.099999999999994  0.5  144.20359999999999
 218    86.230230000000006  0  35.53501
 219    86.230230000000006  0  134.465
 220    86.230230000000006  0.5  142.465
 221    86.280349999999999  4.02644  170
 222    86.280349999999999  4.02644  171.99997999999999
 223    86.474999999999994  0  27.445920000000001
 224    86.474999999999994  0  142.55408
 225    86.474999999999994  0.5  27.445920000000001
 226    86.474999999999994  0.5  35.445920000000001
 227    86.474999999999994  0.5  134.55409
 228    86.474999999999994  0.5  135.85311999999999
 229    86.674530000000004  0  143.6857
 230    86.674530000000004  0.5  143.6857
 231    86.749520000000004  0  26.421399999999998
 232    86.749520000000004  0  34.421399999999998
 233    86.749520000000004  0  35.171399999999998
 234    86.749520000000004  0  134.82859999999999
 235    86.749520000000004  0  135.57859999999999
 236    86.749520000000004  0.5  34.421399999999998
 237    86.749520000000004  0.5  135.57859999999999
 238    86.749520000000004  0.5  142.82859999999999
 239    86.8386  0  26.926639999999999
 240    86.8386  0.5  26.666160000000001
 241    86.8386  0.5  34.926639999999999
 242    86.8386  0.5  135.07336000000001
 243    86.984430000000003  2.5  170
 244    86.984430000000003  2.5  171.99997999999999
 245    87.004000000000005  0.5  21.5
 246    87.004000000000005  0.5  25.796399999999998
 247    87.004000000000005  0.5  144.20359999999999
 248    87.004000000000005  0.5  148.5
 249    87.004000000000005  10.5  21.5
 250    87.004000000000005  10.5  25.796399999999998
 251    87.004000000000005  10.5  144.20359999999999
 252    87.004000000000005  10.5  148.5
 253    87.449039999999997  2.5  170
 254    87.449039999999997  2.5  171.99997999999999
 255    87.537499999999994  0.5  33.2714
 256    87.537499999999994  0.5  134.20359999999999
 257    87.537499999999994  0.5  141.67859999999999
 258    87.876440000000002  1.64042  170
 259    88.224990000000005  6.5  30.796399999999998
 260    88.250820000000004  0.5  30.501200000000001
 261    88.303839999999994  2.5  170
 262    88.303839999999994  2.5  171.99997999999999
 263    88.303839999999994  7.2625000000000002  170
 264    88.303839999999994  7.2625000000000002  171.99997999999999
 265    88.327510000000004  0.5  138.62216000000001
 266    88.327510000000004  6.5  138.62216000000001
 267    88.622720000000001  0.5  31.889140000000001
 268    88.622720000000001  6.5  31.889140000000001
 269    88.731250000000003  2.5  170
 270    88.731250000000003  2.5  171.99997999999999
 271    88.731250000000003  4.8201900000000002  170
 272    88.731250000000003  4.8201900000000002  171.99997999999999
 273    88.731250000000003  5.3086500000000001  170
 274    88.731250000000003  5.3086500000000001  171.99997999999999
 275    88.731250000000003  7.2625000000000002  170
 276    88.731250000000003  7.2625000000000002  171.99997999999999
 277    89.07499  6.5  140.67583999999999
 278    89.343559999999997  0.5  29.198920000000001
 279    89.343559999999997  0.5  137.60611
 280    89.343559999999997  6.5  29.198920000000001
 281    89.343559999999997  6.5  32.393880000000003
 282    89.343559999999997  6.5  137.60611
 283    89.62979  0.5  140.87778
 284    89.924999999999997  0.5  32.496400000000001
 285    90.220200000000006  6.5  140.87778
 286    90.686989999999994  0.5  35.796399999999998
 287    90.686989999999994  0.5  98.563609999999997
 288    90.686989999999994  10.5  35.796399999999998
 289    90.686989999999994  10.5  98.563609999999997
 290    90.775000000000006  0.5  137.73134999999999
 291    90.775000000000006  0.5  140.67583999999999
 292    90.775000000000006  6.5  137.73134999999999
 293    91.017740000000003  0.5  32.098680000000002
 294    91.017740000000003  6.5  32.098680000000002
 295    91.173550000000006  2.5  170
 296    91.173550000000006  2.5  171.99997999999999
 297    91.173550000000006  4.8201900000000002  170
 298    91.173550000000006  4.8201900000000002  171.99997999999999
 299    91.173550000000006  5.3086500000000001  170
 300    91.173550000000006  5.3086500000000001  171.99997999999999
 301    91.173550000000006  7.2625000000000002  170
 302    91.173550000000006  7.2625000000000002  171.99997999999999
 303    91.599170000000001  0.5  30.501200000000001
 304    91.599170000000001  0.5  139.49879000000001
 305    91.599170000000001  6.5  31.0916
 306    91.599170000000001  6.5  138.9084
 307    91.600949999999997  2.5  170
 308    91.600949999999997  2.5  171.99997999999999
 309    91.600949999999997  7.2625000000000002  170
 310    91.600949999999997  7.2625000000000002  171.99997999999999
 311    91.900000000000006  0.5  0
 312    91.900000000000006  0.5  33.2714
 313    91.900000000000006  0.5  134.20359999999999
 314    91.900000000000006  0.5  141.67859999999999
 315    92.186390000000003  0  30.926639999999999
 316    92.186390000000003  0.5  30.666160000000001
 317    92.186390000000003  0.5  139.33385000000001
 318    92.275469999999999  0  138.82859999999999
 319    92.275469999999999  0.5  138.82859999999999
 320    92.350459999999998  0.5  30.314309999999999
 321    92.350459999999998  0.5  31.278490000000001
 322    92.394710000000003  3.59904  170
 323    92.394710000000003  3.59904  171.99997999999999
 324    92.442909999999998  0  139.77814000000001
 325    92.442909999999998  0.5  139.77814000000001
 326    92.794759999999997  0  30.057790000000001
 327    92.794759999999997  0  31.53501
 328    92.794759999999997  0.5  30.057790000000001
 329    92.915899999999993  4.3579699999999999  170
 330    92.924999999999997  0.5  138.45359999999999
 331    93.099999999999994  0.5  98.563609999999997
 332    93.099999999999994  0.5  134.20359999999999
 333    93.099999999999994  10.5  98.563609999999997
 334    93.099999999999994  10.5  134.20359999999999
 335    93.234250000000003  4.0875000000000004  170
 336    93.234250000000003  4.0875000000000004  171.99997999999999
 337    93.299999999999997  0  31.445920000000001
 338    93.299999999999997  0.5  30.146879999999999
 339    93.299999999999997  0.5  31.445920000000001
 340    93.407089999999997  0.5  139.77814000000001
 341    93.574520000000007  0  30.421399999999998
 342    93.574520000000007  0.5  30.421399999999998
 343    93.574520000000007  0.5  138.82859999999999
 344    93.663600000000002  0  139.33385000000001
 345    93.663600000000002  0.5  139.33385000000001
 346    94.653850000000006  2.5  170
 347    94.653850000000006  2.5  171.99997999999999
 348    94.653850000000006  3.59904  170
 349    94.653850000000006  3.59904  171.99997999999999
 350    94.653850000000006  4.0875000000000004  170
 351    94.653850000000006  4.0875000000000004  171.99997999999999
 352    94.653850000000006  6.1558299999999999  170
 353    94.653850000000006  6.1558299999999999  171.99997999999999
 354    94.994429999999994  7.38462  170
 355    94.994429999999994  7.38462  171.99997999999999
 356    95.081249999999997  2.5  170
 357    95.081249999999997  2.5  171.99997999999999
 358    95.081249999999997  3.59904  170
 359    95.081249999999997  3.59904  171.99997999999999
 360    95.081249999999997  4.0875000000000004  170
 361    95.081249999999997  4.0875000000000004  171.99997999999999
 362    95.081249999999997  7.38462  170
 363    95.081249999999997  7.38462  171.99997999999999
 364    95.630769999999998  3.59904  170
 365    95.630769999999998  3.59904  171.99997999999999
 366    95.630769999999998  4.0875000000000004  170
 367    95.630769999999998  4.0875000000000004  171.99997999999999
 368    95.874989999999997  0.5  170
 369    95.874989999999997  4.3579699999999999  170
 370    95.874989999999997  10.5  170
 371    96.119219999999999  3.7211500000000002  170
 372    96.119219999999999  3.7211500000000002  171.99997999999999
 373    96.546639999999996  3.7211500000000002  170
 374    96.546639999999996  3.7211500000000002  171.99997999999999
 375    96.607680000000002  4.8812499999999996  170
 376    96.607680000000002  4.8812499999999996  171.99997999999999
 377    97.096149999999994  7.2625000000000002  170
 378    97.096149999999994  7.2625000000000002  171.99997999999999
 379    97.104299999999995  2.4478599999999999  170
 380    97.104299999999995  2.4478599999999999  171.99997999999999
 381    97.173419999999993  5.5213999999999999  170
 382    97.173419999999993  5.5213999999999999  171.99997999999999
 383    97.241010000000003  2.9236200000000001  170
 384    97.241010000000003  2.9236200000000001  171.99997999999999
 385    97.430059999999997  6.7740400000000003  170
 386    97.430059999999997  6.7740400000000003  171.99997999999999
 387    97.994709999999998  2.9292199999999999  170
 388    98.169129999999996  3.0042499999999999  171.99997999999999
 389    98.428809999999999  5.4595900000000004  171.99997999999999
 390    98.60378  3.39249  170
 391    98.692920000000001  4.5727000000000002  170
 392    98.692920000000001  4.5727000000000002  171.99997999999999
 393    98.795010000000005  3.8981300000000001  171.99997999999999
 394    99.046139999999994  4.85555  170
 395    99.049999999999997  6.7740400000000003  170
 396    99.049999999999997  6.7740400000000003  171.99997999999999
 397    99.049999999999997  7.2625000000000002  170
 398    99.049999999999997  7.2625000000000002  171.99997999999999
 399    99.14479  3.48624  170
 400    99.14479  3.48624  171.99997999999999
 401    99.477400000000003  0.99770999999999999  170
 402    99.477400000000003  10.5  170
 403    99.750460000000004  4.2332999999999998  170
 404    100.04379  6.5988899999999999  171.99997999999999
 405    100.15483  2.9900099999999998  170
 406    100.15483  2.9900099999999998  171.99997999999999
 407    100.15961  5.2717599999999996  171.99997999999999
 408    100.29594  6.0766099999999996  170
 409    100.61057  3.1728000000000001  170
 410    100.61057  3.1728000000000001  171.99997999999999
 411    100.67914  6.6527500000000002  170
 412    100.85048999999999  6.7684699999999998  171.99997999999999
 413    101.07589  2.3968099999999999  171.99997999999999
 414    101.50887  2.8827500000000001  170
 415    101.50887  2.8827500000000001  171.99997999999999
 416    101.54975  6.8699000000000003  170
 417    101.55428000000001  7.3659699999999999  170
 418    101.55428000000001  7.3659699999999999  171.99997999999999
 419    101.68147999999999  2.4243800000000002  170
 420    101.98009  6.6458199999999996  171.99997999999999
 421    102.4361  5.8110499999999998  170
 422    102.50305  6.7565299999999997  170
 423    102.58315  3.1265700000000001  171.99997999999999
 424    102.80235  6.1398000000000001  171.99997999999999
 425    105  0.5  32.0214
 426    105  0.5  140.42859999999999
 427    105.29124  2.34545  170
 428    105.29124  2.34545  171.99997999999999
 429    105.41334999999999  2.0621  170
 430    105.41334999999999  2.0621  171.99997999999999
 431    105.52306  4.3579699999999999  170
 432    105.75490000000001  6.7501899999999999  170
 433    105.75490000000001  6.7501899999999999  171.99997999999999
 434    105.87701  6.4668400000000004  170
 435    105.87701  6.4668400000000004  171.99997999999999
 436    106.21187  4.6961700000000004  170
 437    106.21187  4.6961700000000004  171.99997999999999
 438    106.34734  4.41282  170
 439    106.34734  4.41282  171.99997999999999
 440    109.64445000000001  4.6122100000000001  170
 441    109.64445000000001  4.6122100000000001  171.99997999999999
 442    109.95357  4.9795199999999999  170
 443    109.95357  4.9795199999999999  171.99997999999999
 444    109.97932  6.6795900000000001  170
 445    109.97932  6.6795900000000001  171.99997999999999
 446    110.30750999999999  7.0592899999999998  170
 447    110.30750999999999  7.0592899999999998  171.99997999999999
 448    110.41722  2.2748499999999998  170
 449    110.41722  2.2748499999999998  171.99997999999999
 450    110.48003  4.5771199999999999  170
 451    110.48155  4.4800500000000003  170
 452    110.49312999999999  4.5172600000000003  171.99997999999999
 453    110.77784  2.68031  170
 454    110.77784  2.68031  171.99997999999999
 455    110.794  6.4938099999999999  171.99997999999999
 456    110.81195  6.4968399999999997  170
 457    110.86620000000001  6.5475500000000002  171.99997999999999
 458    110.8742  6.6023100000000001  170
 459    111.10937  10.5  170
 460    111.2415  2.08786  171.99997999999999
 461    111.3223  2.1196199999999998  170
 462    111.34126000000001  2.2177899999999999  170
 463    111.34126000000001  2.2177899999999999  171.99997999999999
 464    111.70515  0.99770999999999999  170
 465    112.06578  7.47811  170
 466    112.06578  7.47811  171.99997999999999
 467    112.11147  2.2895699999999999  170
 468    112.13065  1.5345299999999999  170
 469    112.1459  1.52749  171.99997999999999
 470    112.35329  1.5077100000000001  170
 471    112.38261  1.5265200000000001  171.99997999999999
 472    112.3887  1.5338400000000001  170
 473    112.40064  7.0077699999999998  170
 474    112.40064  7.0077699999999998  171.99997999999999
 475    112.65823  3.0733700000000002  170
 476    112.65823  3.0733700000000002  171.99997999999999
 477    112.68398999999999  3.1954899999999999  170
 478    112.68398999999999  3.1954899999999999  171.99997999999999
 479    112.94158  5.3076999999999996  171.99997999999999
 480    113.06368999999999  5.3076999999999996  170
 481    113.06368999999999  5.3076999999999996  171.99997999999999
 482    113.17346000000001  2.88273  170
 483    113.19709  2.8609  171.99997999999999
 484    113.27643999999999  2.68031  170
 485    113.27643999999999  2.68031  171.99997999999999
 486    113.39855  1.6566399999999999  170
 487    113.39855  1.6566399999999999  171.99997999999999
 488    113.42431999999999  3.1697299999999999  170
 489    113.42431999999999  3.1697299999999999  171.99997999999999
 490    113.45675  7.1947599999999996  170
 491    113.45675  7.1947599999999996  171.99997999999999
 492    113.48251  1.5469299999999999  170
 493    113.48251  1.5469299999999999  171.99997999999999
 494    113.48251  7.0077699999999998  170
 495    113.48251  7.0077699999999998  171.99997999999999
 496    113.65613999999999  7.42659  170
 497    113.65613999999999  7.42659  171.99997999999999
 498    113.7401  6.8598999999999997  171.99997999999999
 499    113.8172  3.09605  170
 500    113.8172  3.09605  171.99997999999999
 501    113.91373  6.4410800000000004  170
 502    113.91373  6.4410800000000004  171.99997999999999
 503    114.02979000000001  6.9856299999999996  171.99997999999999
 504    114.0492  6.1577400000000004  170
 505    114.0492  6.1577400000000004  171.99997999999999
 506    114.05679000000001  7.0039100000000003  171.99997999999999
 507    114.06623  7.0768700000000004  170
 508    114.07268000000001  7.04833  171.99997999999999
 509    114.07496  7.0335299999999998  170
 510    115.04711  6.1835000000000004  170
 511    115.04711  6.1835000000000004  171.99997999999999
 512    115.25318  7.40083  170
 513    115.25318  7.40083  171.99997999999999
 514    115.28561999999999  4.7925300000000002  170
 515    115.28561999999999  4.7925300000000002  171.99997999999999
 516    115.29897  4.9795199999999999  170
 517    115.29897  4.9795199999999999  171.99997999999999
 518    115.3629  6.1835000000000004  170
 519    115.3629  6.1835000000000004  171.99997999999999
 520    115.3629  7.47811  170
 521    115.3629  7.47811  171.99997999999999
 522    115.44018  1.9142300000000001  170
 523    115.44018  1.9142300000000001  171.99997999999999
 524    115.46593  2.0621  170
 525    115.46593  2.0621  171.99997999999999
 526    115.87806999999999  6.3704900000000002  170
 527    115.87806999999999  6.3704900000000002  171.99997999999999
 528    116.0393  6.3704900000000002  170
 529    116.0393  6.3704900000000002  171.99997999999999
 530    116.1189  6.7075399999999998  170
 531    116.1189  6.7075399999999998  171.99997999999999
 532    116.21707000000001  1.73245  170
 533    116.21707000000001  1.73245  171.99997999999999
 534    116.33638999999999  0  30.666160000000001
 535    116.33638999999999  0  139.33385000000001
 536    116.33638999999999  0.5  30.666160000000001
 537    116.33638999999999  0.5  139.33385000000001
 538    116.36081  1.4954099999999999  170
 539    116.36081  1.4954099999999999  171.99997999999999
 540    116.50047000000001  0.5  30.314309999999999
 541    116.5929  0  31.370930000000001
 542    116.5929  0  138.62906000000001
 543    116.5929  0  139.77814000000001
 544    116.5929  0.5  31.370930000000001
 545    116.5929  0.5  138.62906000000001
 546    116.5929  0.5  139.77814000000001
 547    116.6125  0.5  0
 548    116.70601000000001  2.00787  171.99997999999999
 549    116.77294999999999  2.0687799999999998  170
 550    116.89999  0.5  35.796399999999998
 551    116.89999  0.5  85
 552    116.89999  0.5  134.20359999999999
 553    116.89999  10.5  35.796399999999998
 554    116.89999  10.5  134.20359999999999
 555    116.98333  1.7062200000000001  170
 556    116.98333  1.7062200000000001  171.99997999999999
 557    117.08873  6.3704900000000002  170
 558    117.08873  6.3704900000000002  171.99997999999999
 559    117.11449  4.9795199999999999  170
 560    117.11449  4.9795199999999999  171.99997999999999
 561    117.18509  4.7925300000000002  170
 562    117.18509  4.7925300000000002  171.99997999999999
 563    117.20523  0  30.057790000000001
 564    117.20523  0  31.53501
 565    117.20523  0  138.46498
 566    117.20523  0.5  30.057790000000001
 567    117.20523  0.5  31.53501
 568    117.20523  0.5  138.46498
 569    117.34631  5.2113399999999999  170
 570    117.34631  5.2113399999999999  171.99997999999999
 571    117.41691  6.7501899999999999  170
 572    117.41691  6.7501899999999999  171.99997999999999
 573    117.55708  0.5  139.77814000000001
 574    117.64954  0  31.278490000000001
 575    117.64954  0  138.72150999999999
 576    117.64954  0.5  31.278490000000001
 577    117.64954  0.5  138.72150999999999
 578    117.71904000000001  4.8747999999999996  170
 579    117.71904000000001  4.8747999999999996  171.99997999999999
 580    117.72452  0  139.57859999999999
 581    117.81359999999999  0.5  30.666160000000001
 582    117.825  0  30.796399999999998
 583    117.825  0.5  139.20361
 584    117.87765  6.1847099999999999  171.99997999999999
 585    117.8956  6.1877300000000002  170
 586    117.93687  6.3495200000000001  171.99997999999999
 587    117.95413000000001  6.25387  170
 588    117.95784999999999  6.2932100000000002  170
 589    118.09999999999999  0.5  33.2714
 590    118.09999999999999  0.5  140.42859999999999
 591    118.26694999999999  10.5  170
 592    118.37499  0.5  139.20361
 593    118.37499  6.5  139.20361
 594    118.40083  0.5  30.501200000000001
 595    118.57606  2.2233299999999998  170
 596    118.57606  2.2233299999999998  171.99997999999999
 597    118.57606  5.6940799999999996  170
 598    118.57606  5.6940799999999996  171.99997999999999
 599    118.60275  6.5  29.946400000000001
 600    118.60275  6.5  31.6464
 601    118.66001  5.8037900000000002  170
 602    118.66001  5.8037900000000002  171.99997999999999
 603    118.77271  0.5  138.11086
 604    118.96912  1.7529999999999999  170
 605    118.96912  1.7529999999999999  171.99997999999999
 606    118.98224999999999  0.5  32.098680000000002
 607    119.04639  7.2653600000000003  170
 608    119.04639  7.2653600000000003  171.99997999999999
 609    119.11699  7.37507  170
 610    119.11699  7.37507  171.99997999999999
 611    119.22499999999999  6.5  140.67583999999999
 612    119.49356  0.5  29.198920000000001
 613    119.49356  6.5  29.198920000000001
 614    119.49356  6.5  32.393880000000003
 615    119.49356  6.5  137.60611
 616    119.60229  4.7968299999999999  170
 617    119.60229  4.7968299999999999  171.99997999999999
 618    119.6647  4.8359800000000002  171.99997999999999
 619    119.70448  5.0520300000000002  171.99997999999999
 620    119.70944  5.0052700000000003  170
 621    119.83611000000001  6.4162299999999997  171.99997999999999
 622    119.90597  6.3795999999999999  170
 623    120.03425  6.3824100000000001  171.99997999999999
 624    120.05098  4.3031100000000002  170
 625    120.05098  4.3031100000000002  171.99997999999999
 626    120.05685  6.39351  170
 627    120.075  0.5  32.496400000000001
 628    120.075  0.5  140.90359000000001
 629    120.10249  4.2067500000000004  170
 630    120.10249  4.2067500000000004  171.99997999999999
 631    120.11538  0.5  170
 632    120.11538  10.5  170
 633    120.12263  6.6293699999999998  171.99997999999999
 634    120.12826  6.5765500000000001  170
 635    120.30522000000001  4.3579699999999999  170
 636    120.37018999999999  0.5  137.52942999999999
 637    120.48220000000001  5.1016300000000001  170
 638    120.48220000000001  5.1016300000000001  171.99997999999999
 639    120.65643  0.5  29.198920000000001
 640    120.65643  6.5  29.198920000000001
 641    120.65643  6.5  137.60611
 642    120.72821  4.6524999999999999  171.99997999999999
 643    120.73978  4.3031100000000002  170
 644    120.73978  4.3031100000000002  171.99997999999999
 645    120.76057  4.6086099999999997  171.99997999999999
 646    120.78258  1.7873699999999999  171.99997999999999
 647    120.79488000000001  4.5878100000000002  170
 648    120.79958999999999  4.59009  171.99997999999999
 649    120.80291  4.59246  171.99997999999999
 650    120.80466  1.7663500000000001  170
 651    120.80685  4.5963500000000002  171.99997999999999
 652    120.82374  5.1207099999999999  170
 653    120.82374  5.1207099999999999  171.99997999999999
 654    120.90102  4.8182799999999997  170
 655    120.90102  4.8182799999999997  171.99997999999999
 656    121.06516999999999  1.7709299999999999  170
 657    121.06516999999999  1.7709299999999999  171.99997999999999
 658    121.07465000000001  1.9399900000000001  170
 659    121.07465000000001  1.9399900000000001  171.99997999999999
 660    121.07465000000001  2.1136200000000001  170
 661    121.07465000000001  2.1136200000000001  171.99997999999999
 662    121.07465000000001  3.84613  170
 663    121.07465000000001  3.84613  171.99997999999999
 664    121.37727  0.5  140.29633999999999
 665    121.37727  6.5  140.29633999999999
 666    121.38764  4.8719200000000003  170
 667    121.67247  6.5  30.214970000000001
 668    121.74917000000001  0.5  138.9084
 669    121.74917000000001  6.5  138.9084
 670    121.77500000000001  0.5  30.796399999999998
 671    122.105  7.50387  170
 672    122.105  7.50387  171.99997999999999
 673    122.46249  0.5  33.2714
 674    122.46249  0.5  134.20359999999999
 675    122.46249  0.5  141.67859999999999
 676    122.69519  7.2078600000000002  171.99997999999999
 677    122.69745  7.1947599999999996  170
 678    122.99599000000001  0.5  21.5
 679    122.99599000000001  0.5  25.796399999999998
 680    122.99599000000001  0.5  144.20359999999999
 681    122.99599000000001  0.5  148.5
 682    122.99599000000001  10.5  21.5
 683    122.99599000000001  10.5  25.796399999999998
 684    122.99599000000001  10.5  144.20359999999999
 685    122.99599000000001  10.5  148.5
 686    123.14999  0  135.20359999999999
 687    123.14999  0.5  135.20359999999999
 688    123.16139  0.5  143.33383000000001
 689    123.19522000000001  0  27.05292
 690    123.19522000000001  0  34.53989
 691    123.19522000000001  0  143.46012999999999
 692    123.19522000000001  0.5  26.53988
 693    123.19522000000001  0.5  27.05292
 694    123.19522000000001  0.5  34.53989
 695    123.2899  6.1835000000000004  170
 696    123.2899  6.1835000000000004  171.99997999999999
 697    123.32546000000001  0  26.314309999999999
 698    123.32546000000001  0  134.72150999999999
 699    123.32546000000001  0.5  134.72150999999999
 700    123.37385  6.2607699999999999  170
 701    123.37385  6.2607699999999999  171.99997999999999
 702    123.52499  0  34.146880000000003
 703    123.52499  0  35.445920000000001
 704    123.52499  0  135.85311999999999
 705    123.52499  0  142.55408
 706    123.52499  0  143.85312999999999
 707    123.52499  0.5  34.146880000000003
 708    123.52499  0.5  35.445920000000001
 709    123.52499  0.5  135.85311999999999
 710    123.52499  0.5  142.55408
 711    123.52499  0.5  143.85312999999999
 712    123.70872  4.0197599999999998  170
 713    123.70872  4.0197599999999998  171.99997999999999
 714    123.75355999999999  2.1136200000000001  170
 715    123.75355999999999  2.1136200000000001  171.99997999999999
 716    123.75355999999999  3.84613  170
 717    123.75355999999999  3.84613  171.99997999999999
 718    123.76976000000001  0.5  134.465
 719    123.91479  4.3031100000000002  170
 720    123.91479  4.3031100000000002  171.99997999999999
 721    123.94723  5.3916500000000003  170
 722    123.94723  5.3916500000000003  171.99997999999999
 723    124.02451000000001  5.2695400000000001  170
 724    124.02451000000001  5.2695400000000001  171.99997999999999
 725    124.03024000000001  0  26.057790000000001
 726    124.03024000000001  0  27.53501
 727    124.03024000000001  0  35.53501
 728    124.03024000000001  0  134.465
 729    124.03024000000001  0.5  26.057790000000001
 730    124.03024000000001  0.5  27.53501
 731    124.0369  2.2233299999999998  170
 732    124.0369  2.2233299999999998  171.99997999999999
 733    124.0369  3.7364199999999999  170
 734    124.0369  3.7364199999999999  171.99997999999999
 735    124.07364  0.5  25.811589999999999
 736    124.07364  0.5  35.781210000000002
 737    124.07364  0.5  134.21879999999999
 738    124.07364  10.5  35.781210000000002
 739    124.19813000000001  1.9399900000000001  171.99997999999999
 740    124.21841000000001  1.9443900000000001  170
 741    124.23573  1.9611499999999999  171.99997999999999
 742    124.24048999999999  1.97068  171.99997999999999
 743    124.24473  1.98387  171.99997999999999
 744    124.24681  2.0464699999999998  171.99997999999999
 745    124.24802  2.0039400000000001  171.99997999999999
 746    124.24965  2.03634  170
 747    124.27499  0  135.85311999999999
 748    124.27499  0  143.85312999999999
 749    124.27499  0.5  135.85311999999999
 750    124.27499  0.5  143.85312999999999
 751    124.28908  3.9667599999999998  171.99997999999999
 752    124.29449  3.9424899999999998  170
 753    124.33842  4.7126000000000001  170
 754    124.38209000000001  0  34.221870000000003
 755    124.38209000000001  0.5  34.221870000000003
 756    124.38209000000001  0.5  134.62907000000001
 757    124.39752  4.6961700000000004  171.99997999999999
 758    124.39999  0.5  134.33757
 759    124.39999  0.5  144.06962999999999
 760    124.47453  0  35.278489999999998
 761    124.47453  0  142.72149999999999
 762    124.47453  0.5  35.278489999999998
 763    124.47453  0.5  142.72149999999999
 764    124.50499000000001  4.7533000000000003  170
 765    124.50499000000001  4.7533000000000003  171.99997999999999
 766    124.60476  0  143.46012999999999
 767    124.60476  0.5  143.46012999999999
 768    124.6386  0  26.666160000000001
 769    124.6386  0  135.07336000000001
 770    124.6386  0.5  26.666160000000001
 771    124.6386  0.5  135.07336000000001
 772    124.66604  0.5  26.15361
 773    124.66604  0.5  35.439190000000004
 774    124.76602  0.5  143.70361
 775    124.80346  4.3579699999999999  170
 776    124.80346  10.5  170
 777    124.8848  0.5  26.62275
 778    124.8848  0.5  135.02995000000001
 779    124.8848  10.5  135.02995000000001
 780    124.90000000000001  0.5  33.2714
 781    124.90000000000001  0.5  141.67859999999999
 782    125.07392  1.6566399999999999  170
 783    125.07392  1.6566399999999999  171.99997999999999
 784    125.11875999999999  3.2794400000000001  170
 785    125.11875999999999  3.2794400000000001  171.99997999999999
 786    125.14452  1.4954099999999999  170
 787    125.14452  1.4954099999999999  171.99997999999999
 788    125.25424  2.9960900000000001  170
 789    125.25424  2.9960900000000001  171.99997999999999
 790    126.25214  7.40083  170
 791    126.25214  7.40083  171.99997999999999
 792    126.30367  3.1954899999999999  170
 793    126.30367  3.1954899999999999  171.99997999999999
 794    126.58702  3.1954899999999999  170
 795    126.58702  3.1954899999999999  171.99997999999999
 796    126.58702  3.9682499999999998  170
 797    126.58702  3.9682499999999998  171.99997999999999
 798    126.58702  4.15524  170
 799    126.58702  4.15524  171.99997999999999
 800    126.58702  4.9537599999999999  170
 801    126.58702  4.9537599999999999  171.99997999999999
 802    126.58702  5.1273900000000001  170
 803    126.58702  5.1273900000000001  171.99997999999999
 804    126.58702  5.95167  170
 805    126.58702  5.95167  171.99997999999999
 806    126.58702  6.1319800000000004  170
 807    126.58702  6.1319800000000004  171.99997999999999
 808    126.58702  6.9371799999999997  170
 809    126.58702  6.9371799999999997  171.99997999999999
 810    127.18615  2.8348599999999999  170
 811    127.18615  2.8348599999999999  171.99997999999999
 812    127.64312  2.5581999999999998  170
 813    127.64312  2.5581999999999998  171.99997999999999
 814    127.65826  2.4545300000000001  170
 815    127.65826  2.4545300000000001  171.99997999999999
 816    128.17116999999999  3.0218500000000001  170
 817    128.67346000000001  2.68031  170
 818    128.67346000000001  2.68031  171.99997999999999
 819    128.72498999999999  2.7900200000000002  170
 820    128.72498999999999  2.7900200000000002  171.99997999999999
 821    129.47866999999999  7.1174900000000001  170
 822    129.47866999999999  7.1174900000000001  171.99997999999999
 823    129.52350999999999  3.1954899999999999  170
 824    129.52350999999999  3.1954899999999999  171.99997999999999
 825    129.52350999999999  3.9682499999999998  170
 826    129.52350999999999  3.9682499999999998  171.99997999999999
 827    129.52350999999999  4.15524  170
 828    129.52350999999999  4.15524  171.99997999999999
 829    129.52350999999999  4.9537599999999999  170
 830    129.52350999999999  4.9537599999999999  171.99997999999999
 831    129.52350999999999  5.1273900000000001  170
 832    129.52350999999999  5.1273900000000001  171.99997999999999
 833    129.52350999999999  5.95167  170
 834    129.52350999999999  5.95167  171.99997999999999
 835    129.52350999999999  6.1319800000000004  170
 836    129.52350999999999  6.1319800000000004  171.99997999999999
 837    129.52350999999999  6.9371799999999997  170
 838    129.52350999999999  6.9371799999999997  171.99997999999999
 839    129.68475000000001  7.40083  170
 840    129.68475000000001  7.40083  171.99997999999999
 841    129.80685  3.1954899999999999  170
 842    129.80685  3.1954899999999999  171.99997999999999
 843    129.80685  6.8341399999999997  170
 844    129.80685  6.8341399999999997  171.99997999999999
 845    130.06047000000001  7.0169300000000003  170
 846    130.06247999999999  7.02311  171.99997999999999
 847    130.27718999999999  3.1954899999999999  170
 848    130.27718999999999  3.1954899999999999  171.99997999999999
 849    130.53478999999999  1.5469299999999999  170
 850    130.55016000000001  1.5485800000000001  171.99997999999999
 851    130.58629999999999  3.5627900000000001  170
 852    130.58629999999999  3.5627900000000001  171.99997999999999
 853    130.62075999999999  1.60724  170
 854    130.62617  1.6267799999999999  171.99997999999999
 855    130.87917999999999  0.99770999999999999  170
 856    130.87917999999999  10.5  170
 857    131.02420000000001  3.0218500000000001  171.99997999999999
 858    131.05001999999999  3.02373  170
 859    131.12560999999999  3.1000200000000002  171.99997999999999
 860    131.12723  3.1182099999999999  170
 861    158.01519999999999  0.5  149.82634999999999
 862    158.01519999999999  5.5  149.82634999999999
 863    158.13397000000001  0.5  154.5
 864    158.35721000000001  5.5  154.76605000000001
 865    158.82634999999999  0.5  149.01517999999999
 866    158.82634999999999  5.5  149.01517999999999
 867    182.17365000000001  0.5  154.98480000000001
 868    182.34202999999999  5.5  154.93969999999999
 869    182.64278999999999  0.5  149.23396
 870    182.86602999999999  5.5  149.5
 871    182.98480000000001  0.5  154.17365000000001
 872    182.98480000000001  5.5  154.17365000000001
 873    185.09998999999999  0.5  33.2714
 874    185.09998999999999  0.5  135.20359999999999
 875    185.09998999999999  10.5  26.796399999999998
 876    185.11519000000001  0.5  34.970050000000001
 877    185.16031000000001  0.5  26.45438
 878    185.16031000000001  0.5  143.54562000000001
 879    185.33394999999999  0.5  35.439190000000004
 880    185.33394999999999  0.5  134.56081
 881    185.33394999999999  10.5  26.15361
 882    185.36139  0  26.926639999999999
 883    185.36139  0  135.33383000000001
 884    185.36139  0  143.07336000000001
 885    185.36139  0.5  26.926639999999999
 886    185.36139  0.5  135.33383000000001
 887    185.36139  0.5  143.07336000000001
 888    185.39523  0  34.53989
 889    185.39523  0.5  34.53989
 890    185.59998999999999  0.5  144.06962999999999
 891    185.61789999999999  0  26.221869999999999
 892    185.61789999999999  0  35.370930000000001
 893    185.61789999999999  0  134.62907000000001
 894    185.61789999999999  0  143.77814000000001
 895    185.61789999999999  0.5  26.221869999999999
 896    185.61789999999999  0.5  35.370930000000001
 897    185.61789999999999  0.5  134.62907000000001
 898    185.61789999999999  0.5  142.62907000000001
 899    185.61789999999999  0.5  143.77814000000001
 900    185.84348  0  34.091630000000002
 901    185.84348  0  135.90836999999999
 902    185.84348  0.5  34.091630000000002
 903    185.84348  0.5  135.90836999999999
 904    185.92635000000001  0.5  25.811589999999999
 905    185.92635000000001  0.5  35.781210000000002
 906    185.92635000000001  0.5  134.21879999999999
 907    186.10001  0  134.45359999999999
 908    186.10001  0  142.45359999999999
 909    186.10001  0  143.95359999999999
 910    186.10001  0.5  134.45359999999999
 911    186.10001  0.5  142.45359999999999
 912    186.10001  0.5  143.95359999999999
 913    186.23024000000001  0  26.057790000000001
 914    186.23024000000001  0  27.53501
 915    186.23024000000001  0  35.53501
 916    186.23024000000001  0.5  26.057790000000001
 917    186.23024000000001  0.5  27.53501
 918    186.23024000000001  0.5  35.53501
 919    186.35651999999999  0  135.90836999999999
 920    186.35651999999999  0.5  34.091630000000002
 921    186.35651999999999  0.5  135.90836999999999
 922    186.80477999999999  0  26.53988
 923    186.80477999999999  0  27.05292
 924    186.80477999999999  0  34.53989
 925    186.80477999999999  0  35.052909999999997
 926    186.80477999999999  0  134.94710000000001
 927    186.80477999999999  0  135.46010999999999
 928    186.80477999999999  0  142.94708
 929    186.80477999999999  0  143.46012999999999
 930    186.80477999999999  0.5  26.53988
 931    186.80477999999999  0.5  27.05292
 932    186.80477999999999  0.5  34.53989
 933    186.80477999999999  0.5  35.052909999999997
 934    186.80477999999999  0.5  134.94710000000001
 935    186.80477999999999  0.5  135.46010999999999
 936    186.80477999999999  0.5  142.94708
 937    186.80477999999999  0.5  143.46012999999999
 938    187.00399999999999  0.5  21.5
 939    187.00399999999999  0.5  25.796399999999998
 940    187.00399999999999  0.5  144.20359999999999
 941    187.00399999999999  0.5  148.5
 942    187.00399999999999  10.5  21.5
 943    187.00399999999999  10.5  25.796399999999998
 944    187.00399999999999  10.5  144.20359999999999
 945    187.00399999999999  10.5  148.5
 946    187.53748999999999  0.5  0
 947    187.53748999999999  0.5  32.0214
 948    187.53748999999999  0.5  134.20359999999999
 949    187.53748999999999  0.5  141.67859999999999
 950    188.25081  0.5  138.9084
 951    188.25081  6.5  138.9084
 952    188.25082  0.5  31.0916
 953    188.45274000000001  6.5  31.6464
 954    188.62271000000001  0.5  29.703659999999999
 955    188.62271000000001  6.5  140.29633999999999
 956    188.83225999999999  0.5  32.098680000000002
 957    189.07499999999999  6.5  29.324159999999999
 958    189.34354999999999  0.5  137.60611
 959    189.34354999999999  6.5  137.60611
 960    189.62979000000001  0.5  140.87778
 961    189.92500000000001  6.5  32.496400000000001
 962    190.22020000000001  6.5  140.87778
 963    190.68700000000001  0.5  35.796399999999998
 964    190.68700000000001  0.5  98.563609999999997
 965    190.68700000000001  10.5  35.796399999999998
 966    190.68700000000001  10.5  98.563609999999997
 967    190.77501000000001  0.5  29.324159999999999
 968    190.77501000000001  0.5  32.268639999999998
 969    190.77501000000001  6.5  29.324159999999999
 970    190.77501000000001  6.5  32.268639999999998
 971    191.22728000000001  0.5  138.11086
 972    191.22728000000001  0.5  140.29633999999999
 973    191.22728000000001  6.5  138.11086
 974    191.22728000000001  6.5  140.29633999999999
 975    191.52248  6.5  31.377829999999999
 976    191.59916999999999  0.5  30.501200000000001
 977    191.625  0.5  139.20361
 978    191.89999  0.5  0
 979    191.89999  0.5  33.2714
 980    191.89999  0.5  134.20359999999999
 981    191.89999  0.5  141.67859999999999
 982    192.18638999999999  0  30.926639999999999
 983    192.18638999999999  0  139.33385000000001
 984    192.18638999999999  0.5  30.666160000000001
 985    192.18638999999999  0.5  139.33385000000001
 986    192.35046  0  30.314309999999999
 987    192.35046  0  31.278490000000001
 988    192.35046  0  138.72150999999999
 989    192.35046  0.5  30.314309999999999
 990    192.35046  0.5  31.278490000000001
 991    192.35046  0.5  138.72150999999999
 992    192.79477  0  138.46498
 993    192.92500000000001  0  139.95359999999999
 994    192.92500000000001  0.5  138.45359999999999
 995    193.05524  0.5  31.53501
 996    193.05524  0.5  139.94220000000001
 997    193.09998999999999  0.5  98.563609999999997
 998    193.09998999999999  0.5  134.20359999999999
 999    193.09998999999999  10.5  98.563609999999997
1000    193.09998999999999  10.5  134.20359999999999
1001    193.18152000000001  0  30.091629999999999
1002    193.18152000000001  0.5  30.091629999999999
1003    193.40709000000001  0.5  138.62906000000001
1004    193.62978000000001  0  31.05292
1005    193.62978000000001  0  139.46010999999999
1006    193.62978000000001  0.5  30.53988
1007    193.62978000000001  0.5  31.05292
1008    193.62978000000001  0.5  139.46010999999999
1009    208.99997999999999  10.5  170
1010    210  0.5  1
1011    210  0.5  85
1012    210  0.5  169
1013    210  10.5  1
1014    210  10.5  169
1015    24.805393950606824  0.5  148.5
1016    82.663531465080908  0.5  148.5
1017    51.201462289819823  0.5  148.5
1018    124.72367792896036  0.5  148.5
1019    185.22015305288008  0.5  148.5
1020    152.62446691172408  0.5  148.5
1021    19.987743540527198  6.6329780664446627  137.75106670905404
1022    24.780521208004011  0.6306089838029858  143.25742402018255
1023    189.99229652676763  6.5858706229566266  137.86018749229268
1024    185.29916129748423  0.67488273769751483  143.38224419667753
1025    58.264881117224689  4.9899253832099006  148.5
1026    20.030715746112215  6.5  138.75805114173451
1027    23.919259149920407  0.5  141.94462174677068
1028    23.389389482343756  0.5  141.20326888220777
1029    124.12836360477719  2.062595038903615  171.99997999999999
# Generated by pq1.414a300 
